# xmcd
#
# Track frame offsets: 
#        150
#        15125
#        23660
#        34512
#        50239
#        65790
#        71842
#        77892
#        106047
#        117882
#        134332
#        141082
#        152787
#        163295
#        178072
#        196372
#
# Disc length: 2755 seconds
#
# Revision: 0
# Processed by: cddbd v1.4PL0 Copyright (c) Steve Scherf et al.
# Submitted via: ExactAudioCopy v0.90a11
#
DISCID=dd0ac110
DTITLE=Jerry Clower - Country Ham
DYEAR=1900
DGENRE=
TTITLE0=The She Coon Of Women's Lib
TTITLE1=Panama Limited
TTITLE2=The Time We Played Clemson
TTITLE3=Marcel Is In Trouble
TTITLE4=Mr. Duval Scott
TTITLE5=Home In The Country
TTITLE6=U.S. Exports
TTITLE7=Ole Slantface
TTITLE8=The New Fad
TTITLE9=My Pet Peeve
TTITLE10=Marcel's Invasion
TTITLE11=The Young People Of Today
TTITLE12=All Right
TTITLE13=A New Bull
TTITLE14=In High Cotton
TTITLE15=Be Yourself
EXTD=
EXTT0=
EXTT1=
EXTT2=
EXTT3=
EXTT4=
EXTT5=
EXTT6=
EXTT7=
EXTT8=
EXTT9=
EXTT10=
EXTT11=
EXTT12=
EXTT13=
EXTT14=
EXTT15=
PLAYORDER=
